<svg xmlns="http://www.w3.org/2000/svg" width="1em" height=".13em" viewBox="0 0 2931.124 380.875" style="font-size:20rem" variant="large"><g data-name="Group 1236"><path data-name="Path 1602" d="M1399.766 66.101h-9.943Z"></path><path data-name="Path 1603" d="m547.744 378.507-60.732-87.04c35.2-15.087 55.7-44.875 55.7-85.494 0-60.735-45.259-98.259-117.6-98.259H307.898v270.793h62.669v-75.435h57.645l52.224 75.435Zm-68.473-172.534c0 29.4-19.342 47.2-57.64 47.2h-51.064v-94.395h51.064c38.298 0 57.64 17.408 57.64 47.195Zm175.241 122.241v-62.666h125.727v-48.743H654.512v-58.8h142.36v-50.291H592.231v270.793h209.671v-50.293Zm259.575 0v-62.666h125.725v-48.743H914.088v-58.8h142.36v-50.291H851.806v270.793h209.671v-50.293Zm197.292 50.29h123.019c88.588 0 149.323-53.385 149.323-135.4s-60.735-135.39-149.323-135.39H1111.38Zm62.669-51.451V159.165h57.254c53.772 0 88.975 32.108 88.975 83.946s-35.2 83.946-88.975 83.946Zm480.464-219.339h-61.509l-72.338 120.31-72.34-120.31h-66.538l104.836 174.081v96.712h62.669v-95.938Z"></path><path data-name="Path 1601" d="M2156.008 378.507h65.767l-121.086-270.793h-61.9l-120.692 270.793h64.217l23.985-58.027h125.725Zm-129.594-105.609 42.94-103.675 42.94 103.675Zm528.821 105.609-.774-270.793h-51.451l-99.806 168.279-101.354-168.279h-51.838v270.793h58.8V219.514l79.3 130.368h28.24l79.695-133.851.387 162.476Zm126.5-50.29v-62.669h125.725v-48.743h-125.726v-58.8h142.36v-50.291h-204.642v270.793h209.671v-50.293Z"></path><path data-name="Rectangle 49" fill="#1072f8" d="M2823.677 0h107.447v53.719h-107.447z"></path><path data-name="Rectangle 48" fill="#1072f8" d="M2931.12.261v107.446h-53.72V.261z"></path><path data-name="Path 1605" d="M272.716 212.814v36.3a107.491 107.491 0 0 1-1.422 17.691l-.021.113a136.562 136.562 0 0 1-157.318 112.039 136.1 136.1 0 0 1-87.357-53.738A136.137 136.137 0 0 1 1.914 221.633q.75-4.468 1.783-8.832a136.576 136.576 0 0 1 132.887-105.094H219.797v53.658h-22.623v.016h-60.59a82.891 82.891 0 0 0-82.865 82.9 82.88 82.88 0 0 0 82.9 82.863 82.883 82.883 0 0 0 79.848-60.734h-70.461v-53.603Z"></path><path data-name="Path 1604" d="M1918.101 212.814v36.3a107.491 107.491 0 0 1-1.422 17.691l-.021.113a136.562 136.562 0 0 1-157.318 112.039 136.1 136.1 0 0 1-87.357-53.738 136.137 136.137 0 0 1-24.684-103.586q.75-4.468 1.783-8.832a136.576 136.576 0 0 1 132.887-105.094H1865.182v53.658h-22.623v.016h-60.59a82.891 82.891 0 0 0-82.865 82.9 82.88 82.88 0 0 0 82.9 82.863 82.883 82.883 0 0 0 79.848-60.734h-70.461v-53.603Z"></path></g></svg>